%TF.GenerationSoftware,KiCad,Pcbnew,8.0.6*%
%TF.CreationDate,2024-11-14T10:44:01+01:00*%
%TF.ProjectId,dac_hat,6461635f-6861-4742-9e6b-696361645f70,0*%
%TF.SameCoordinates,Original*%
%TF.FileFunction,Copper,L4,Bot*%
%TF.FilePolarity,Positive*%
%FSLAX46Y46*%
G04 Gerber Fmt 4.6, Leading zero omitted, Abs format (unit mm)*
G04 Created by KiCad (PCBNEW 8.0.6) date 2024-11-14 10:44:01*
%MOMM*%
%LPD*%
G01*
G04 APERTURE LIST*
%TA.AperFunction,SMDPad,CuDef*%
%ADD10R,2.540000X3.510000*%
%TD*%
%TA.AperFunction,ViaPad*%
%ADD11C,0.600000*%
%TD*%
%TA.AperFunction,Conductor*%
%ADD12C,0.200000*%
%TD*%
G04 APERTURE END LIST*
D10*
%TO.P,BT1,1,+*%
%TO.N,VCC*%
X131680000Y-83000000D03*
%TO.P,BT1,2,-*%
%TO.N,GND*%
X102320000Y-83000000D03*
%TD*%
D11*
%TO.N,GND*%
X113000000Y-83000000D03*
X114000000Y-85000000D03*
X114000000Y-81000000D03*
X129000000Y-85000000D03*
X129000000Y-81000000D03*
X104000000Y-86000000D03*
X101000000Y-86000000D03*
X104000000Y-80000000D03*
X101000000Y-80000000D03*
X105000000Y-83000000D03*
X100000000Y-83000000D03*
%TO.N,VCC*%
X129000000Y-83000000D03*
%TD*%
D12*
%TO.N,VCC*%
X131680000Y-83000000D02*
X129000000Y-83000000D01*
%TD*%
%TA.AperFunction,Conductor*%
%TO.N,GND*%
G36*
X134003736Y-70500726D02*
G01*
X134293796Y-70518271D01*
X134308659Y-70520076D01*
X134590798Y-70571780D01*
X134605335Y-70575363D01*
X134879172Y-70660695D01*
X134893163Y-70666000D01*
X135154743Y-70783727D01*
X135167989Y-70790680D01*
X135413465Y-70939075D01*
X135425776Y-70947573D01*
X135651573Y-71124473D01*
X135662781Y-71134403D01*
X135865596Y-71337218D01*
X135875526Y-71348426D01*
X135995481Y-71501538D01*
X136052422Y-71574217D01*
X136060928Y-71586540D01*
X136209316Y-71832004D01*
X136216275Y-71845263D01*
X136333997Y-72106831D01*
X136339306Y-72120832D01*
X136424635Y-72394663D01*
X136428219Y-72409201D01*
X136479923Y-72691340D01*
X136481728Y-72706205D01*
X136499274Y-72996263D01*
X136499500Y-73003750D01*
X136499500Y-92996249D01*
X136499274Y-93003736D01*
X136481728Y-93293794D01*
X136479923Y-93308659D01*
X136428219Y-93590798D01*
X136424635Y-93605336D01*
X136339306Y-93879167D01*
X136333997Y-93893168D01*
X136216275Y-94154736D01*
X136209316Y-94167995D01*
X136060928Y-94413459D01*
X136052422Y-94425782D01*
X135875526Y-94651573D01*
X135865596Y-94662781D01*
X135662781Y-94865596D01*
X135651573Y-94875526D01*
X135425782Y-95052422D01*
X135413459Y-95060928D01*
X135167995Y-95209316D01*
X135154736Y-95216275D01*
X134893168Y-95333997D01*
X134879167Y-95339306D01*
X134605336Y-95424635D01*
X134590798Y-95428219D01*
X134308659Y-95479923D01*
X134293794Y-95481728D01*
X134003736Y-95499274D01*
X133996249Y-95499500D01*
X100003751Y-95499500D01*
X99996264Y-95499274D01*
X99706205Y-95481728D01*
X99691340Y-95479923D01*
X99409201Y-95428219D01*
X99394663Y-95424635D01*
X99120832Y-95339306D01*
X99106831Y-95333997D01*
X98845263Y-95216275D01*
X98832004Y-95209316D01*
X98586540Y-95060928D01*
X98574217Y-95052422D01*
X98348426Y-94875526D01*
X98337218Y-94865596D01*
X98134403Y-94662781D01*
X98124473Y-94651573D01*
X97947573Y-94425776D01*
X97939075Y-94413465D01*
X97790680Y-94167989D01*
X97783727Y-94154743D01*
X97666000Y-93893163D01*
X97660693Y-93879167D01*
X97575364Y-93605336D01*
X97571780Y-93590798D01*
X97520076Y-93308659D01*
X97518271Y-93293794D01*
X97500726Y-93003736D01*
X97500500Y-92996249D01*
X97500500Y-84802844D01*
X100550000Y-84802844D01*
X100556401Y-84862372D01*
X100556403Y-84862379D01*
X100606645Y-84997086D01*
X100606649Y-84997093D01*
X100692809Y-85112187D01*
X100692812Y-85112190D01*
X100807906Y-85198350D01*
X100807913Y-85198354D01*
X100942620Y-85248596D01*
X100942627Y-85248598D01*
X101002155Y-85254999D01*
X101002172Y-85255000D01*
X102070000Y-85255000D01*
X102570000Y-85255000D01*
X103637828Y-85255000D01*
X103637844Y-85254999D01*
X103697372Y-85248598D01*
X103697379Y-85248596D01*
X103832086Y-85198354D01*
X103832093Y-85198350D01*
X103947187Y-85112190D01*
X103947190Y-85112187D01*
X104033350Y-84997093D01*
X104033354Y-84997086D01*
X104083596Y-84862379D01*
X104083598Y-84862372D01*
X104089999Y-84802844D01*
X104090000Y-84802827D01*
X104090000Y-83250000D01*
X102570000Y-83250000D01*
X102570000Y-85255000D01*
X102070000Y-85255000D01*
X102070000Y-83250000D01*
X100550000Y-83250000D01*
X100550000Y-84802844D01*
X97500500Y-84802844D01*
X97500500Y-82999996D01*
X128194435Y-82999996D01*
X128194435Y-83000003D01*
X128214630Y-83179249D01*
X128214631Y-83179254D01*
X128274211Y-83349523D01*
X128370184Y-83502262D01*
X128497738Y-83629816D01*
X128588080Y-83686582D01*
X128648426Y-83724500D01*
X128650478Y-83725789D01*
X128820745Y-83785368D01*
X128820750Y-83785369D01*
X128999996Y-83805565D01*
X129000000Y-83805565D01*
X129000004Y-83805565D01*
X129179249Y-83785369D01*
X129179252Y-83785368D01*
X129179255Y-83785368D01*
X129349522Y-83725789D01*
X129502262Y-83629816D01*
X129502267Y-83629810D01*
X129505097Y-83627555D01*
X129507275Y-83626665D01*
X129508158Y-83626111D01*
X129508255Y-83626265D01*
X129569783Y-83601145D01*
X129582412Y-83600500D01*
X129785501Y-83600500D01*
X129852540Y-83620185D01*
X129898295Y-83672989D01*
X129909501Y-83724500D01*
X129909501Y-84802876D01*
X129915908Y-84862483D01*
X129966202Y-84997328D01*
X129966206Y-84997335D01*
X130052452Y-85112544D01*
X130052455Y-85112547D01*
X130167664Y-85198793D01*
X130167671Y-85198797D01*
X130302517Y-85249091D01*
X130302516Y-85249091D01*
X130309444Y-85249835D01*
X130362127Y-85255500D01*
X132997872Y-85255499D01*
X133057483Y-85249091D01*
X133192331Y-85198796D01*
X133307546Y-85112546D01*
X133393796Y-84997331D01*
X133444091Y-84862483D01*
X133450500Y-84802873D01*
X133450499Y-81197128D01*
X133444091Y-81137517D01*
X133393884Y-81002906D01*
X133393797Y-81002671D01*
X133393793Y-81002664D01*
X133307547Y-80887455D01*
X133307544Y-80887452D01*
X133192335Y-80801206D01*
X133192328Y-80801202D01*
X133057482Y-80750908D01*
X133057483Y-80750908D01*
X132997883Y-80744501D01*
X132997881Y-80744500D01*
X132997873Y-80744500D01*
X132997864Y-80744500D01*
X130362129Y-80744500D01*
X130362123Y-80744501D01*
X130302516Y-80750908D01*
X130167671Y-80801202D01*
X130167664Y-80801206D01*
X130052455Y-80887452D01*
X130052452Y-80887455D01*
X129966206Y-81002664D01*
X129966202Y-81002671D01*
X129915908Y-81137517D01*
X129909501Y-81197116D01*
X129909501Y-81197123D01*
X129909500Y-81197135D01*
X129909500Y-82275500D01*
X129889815Y-82342539D01*
X129837011Y-82388294D01*
X129785500Y-82399500D01*
X129582412Y-82399500D01*
X129515373Y-82379815D01*
X129505097Y-82372445D01*
X129502263Y-82370185D01*
X129502262Y-82370184D01*
X129445496Y-82334515D01*
X129349523Y-82274211D01*
X129179254Y-82214631D01*
X129179249Y-82214630D01*
X129000004Y-82194435D01*
X128999996Y-82194435D01*
X128820750Y-82214630D01*
X128820745Y-82214631D01*
X128650476Y-82274211D01*
X128497737Y-82370184D01*
X128370184Y-82497737D01*
X128274211Y-82650476D01*
X128214631Y-82820745D01*
X128214630Y-82820750D01*
X128194435Y-82999996D01*
X97500500Y-82999996D01*
X97500500Y-81197155D01*
X100550000Y-81197155D01*
X100550000Y-82750000D01*
X102070000Y-82750000D01*
X102570000Y-82750000D01*
X104090000Y-82750000D01*
X104090000Y-81197172D01*
X104089999Y-81197155D01*
X104083598Y-81137627D01*
X104083596Y-81137620D01*
X104033354Y-81002913D01*
X104033350Y-81002906D01*
X103947190Y-80887812D01*
X103947187Y-80887809D01*
X103832093Y-80801649D01*
X103832086Y-80801645D01*
X103697379Y-80751403D01*
X103697372Y-80751401D01*
X103637844Y-80745000D01*
X102570000Y-80745000D01*
X102570000Y-82750000D01*
X102070000Y-82750000D01*
X102070000Y-80745000D01*
X101002155Y-80745000D01*
X100942627Y-80751401D01*
X100942620Y-80751403D01*
X100807913Y-80801645D01*
X100807906Y-80801649D01*
X100692812Y-80887809D01*
X100692809Y-80887812D01*
X100606649Y-81002906D01*
X100606645Y-81002913D01*
X100556403Y-81137620D01*
X100556401Y-81137627D01*
X100550000Y-81197155D01*
X97500500Y-81197155D01*
X97500500Y-73003750D01*
X97500726Y-72996263D01*
X97518271Y-72706205D01*
X97520076Y-72691340D01*
X97571780Y-72409201D01*
X97575364Y-72394663D01*
X97652096Y-72148422D01*
X97660696Y-72120822D01*
X97665998Y-72106841D01*
X97783731Y-71845249D01*
X97790676Y-71832016D01*
X97939080Y-71586526D01*
X97947567Y-71574230D01*
X98124480Y-71348417D01*
X98134395Y-71337226D01*
X98337226Y-71134395D01*
X98348417Y-71124480D01*
X98574230Y-70947567D01*
X98586526Y-70939080D01*
X98832016Y-70790676D01*
X98845249Y-70783731D01*
X99106841Y-70665998D01*
X99120822Y-70660696D01*
X99394668Y-70575362D01*
X99409197Y-70571780D01*
X99691344Y-70520075D01*
X99706201Y-70518271D01*
X99996264Y-70500726D01*
X100003751Y-70500500D01*
X100065892Y-70500500D01*
X133934108Y-70500500D01*
X133996249Y-70500500D01*
X134003736Y-70500726D01*
G37*
%TD.AperFunction*%
%TD*%
M02*
