%TF.GenerationSoftware,KiCad,Pcbnew,8.0.6*%
%TF.CreationDate,2024-11-14T10:44:01+01:00*%
%TF.ProjectId,dac_hat,6461635f-6861-4742-9e6b-696361645f70,0*%
%TF.SameCoordinates,Original*%
%TF.FileFunction,Legend,Bot*%
%TF.FilePolarity,Positive*%
%FSLAX46Y46*%
G04 Gerber Fmt 4.6, Leading zero omitted, Abs format (unit mm)*
G04 Created by KiCad (PCBNEW 8.0.6) date 2024-11-14 10:44:01*
%MOMM*%
%LPD*%
G01*
G04 APERTURE LIST*
%ADD10C,0.150000*%
%ADD11C,0.120000*%
G04 APERTURE END LIST*
D10*
X117785714Y-90551009D02*
X117642857Y-90598628D01*
X117642857Y-90598628D02*
X117595238Y-90646247D01*
X117595238Y-90646247D02*
X117547619Y-90741485D01*
X117547619Y-90741485D02*
X117547619Y-90884342D01*
X117547619Y-90884342D02*
X117595238Y-90979580D01*
X117595238Y-90979580D02*
X117642857Y-91027200D01*
X117642857Y-91027200D02*
X117738095Y-91074819D01*
X117738095Y-91074819D02*
X118119047Y-91074819D01*
X118119047Y-91074819D02*
X118119047Y-90074819D01*
X118119047Y-90074819D02*
X117785714Y-90074819D01*
X117785714Y-90074819D02*
X117690476Y-90122438D01*
X117690476Y-90122438D02*
X117642857Y-90170057D01*
X117642857Y-90170057D02*
X117595238Y-90265295D01*
X117595238Y-90265295D02*
X117595238Y-90360533D01*
X117595238Y-90360533D02*
X117642857Y-90455771D01*
X117642857Y-90455771D02*
X117690476Y-90503390D01*
X117690476Y-90503390D02*
X117785714Y-90551009D01*
X117785714Y-90551009D02*
X118119047Y-90551009D01*
X117261904Y-90074819D02*
X116690476Y-90074819D01*
X116976190Y-91074819D02*
X116976190Y-90074819D01*
X115833333Y-91074819D02*
X116404761Y-91074819D01*
X116119047Y-91074819D02*
X116119047Y-90074819D01*
X116119047Y-90074819D02*
X116214285Y-90217676D01*
X116214285Y-90217676D02*
X116309523Y-90312914D01*
X116309523Y-90312914D02*
X116404761Y-90360533D01*
D11*
%TO.C,BT1*%
X127692000Y-79390000D02*
X131310000Y-79390000D01*
X131310000Y-79390000D02*
X131310000Y-81100000D01*
X131310000Y-86610000D02*
X131310000Y-84900000D01*
X131310000Y-86610000D02*
X127692000Y-86610000D01*
X109152700Y-74890000D02*
X124847300Y-74890000D01*
X124847300Y-91110000D02*
X120860000Y-91110000D01*
X120860000Y-91110000D02*
X118660000Y-88910000D01*
X118660000Y-88910000D02*
X115340000Y-88910000D01*
X113140000Y-91110000D02*
X115340000Y-88910000D01*
X113140000Y-91110000D02*
X109152700Y-91110000D01*
X102690000Y-79390000D02*
X106308000Y-79390000D01*
X102690000Y-79390000D02*
X102690000Y-81100000D01*
X102690000Y-86610000D02*
X102690000Y-84900000D01*
X106308000Y-86610000D02*
X102690000Y-86610000D01*
X124845371Y-74888211D02*
G75*
G02*
X127691999Y-79390000I-7845391J-8111799D01*
G01*
X127692000Y-86610000D02*
G75*
G02*
X124845371Y-91111789I-10691995J3609996D01*
G01*
X106308000Y-79390000D02*
G75*
G02*
X109154629Y-74888211I10692000J-3610000D01*
G01*
X109154629Y-91111789D02*
G75*
G02*
X106308000Y-86610000I7845391J8111801D01*
G01*
%TD*%
M02*
