%TF.GenerationSoftware,KiCad,Pcbnew,8.0.6*%
%TF.CreationDate,2024-11-14T10:44:01+01:00*%
%TF.ProjectId,dac_hat,6461635f-6861-4742-9e6b-696361645f70,0*%
%TF.SameCoordinates,Original*%
%TF.FileFunction,Copper,L1,Top*%
%TF.FilePolarity,Positive*%
%FSLAX46Y46*%
G04 Gerber Fmt 4.6, Leading zero omitted, Abs format (unit mm)*
G04 Created by KiCad (PCBNEW 8.0.6) date 2024-11-14 10:44:01*
%MOMM*%
%LPD*%
G01*
G04 APERTURE LIST*
G04 Aperture macros list*
%AMRoundRect*
0 Rectangle with rounded corners*
0 $1 Rounding radius*
0 $2 $3 $4 $5 $6 $7 $8 $9 X,Y pos of 4 corners*
0 Add a 4 corners polygon primitive as box body*
4,1,4,$2,$3,$4,$5,$6,$7,$8,$9,$2,$3,0*
0 Add four circle primitives for the rounded corners*
1,1,$1+$1,$2,$3*
1,1,$1+$1,$4,$5*
1,1,$1+$1,$6,$7*
1,1,$1+$1,$8,$9*
0 Add four rect primitives between the rounded corners*
20,1,$1+$1,$2,$3,$4,$5,0*
20,1,$1+$1,$4,$5,$6,$7,0*
20,1,$1+$1,$6,$7,$8,$9,0*
20,1,$1+$1,$8,$9,$2,$3,0*%
G04 Aperture macros list end*
%TA.AperFunction,SMDPad,CuDef*%
%ADD10RoundRect,0.135000X-0.135000X-0.185000X0.135000X-0.185000X0.135000X0.185000X-0.135000X0.185000X0*%
%TD*%
%TA.AperFunction,SMDPad,CuDef*%
%ADD11RoundRect,0.147500X-0.147500X-0.172500X0.147500X-0.172500X0.147500X0.172500X-0.147500X0.172500X0*%
%TD*%
%TA.AperFunction,ViaPad*%
%ADD12C,0.600000*%
%TD*%
%TA.AperFunction,Conductor*%
%ADD13C,0.200000*%
%TD*%
G04 APERTURE END LIST*
D10*
%TO.P,R1,1*%
%TO.N,/led*%
X118490000Y-83000000D03*
%TO.P,R1,2*%
%TO.N,VCC*%
X119510000Y-83000000D03*
%TD*%
D11*
%TO.P,D1,1,K*%
%TO.N,GND*%
X114515000Y-83000000D03*
%TO.P,D1,2,A*%
%TO.N,/led*%
X115485000Y-83000000D03*
%TD*%
D12*
%TO.N,GND*%
X113000000Y-83000000D03*
X114000000Y-85000000D03*
X114000000Y-81000000D03*
X129000000Y-85000000D03*
X129000000Y-81000000D03*
X104000000Y-86000000D03*
X101000000Y-86000000D03*
X104000000Y-80000000D03*
X101000000Y-80000000D03*
X105000000Y-83000000D03*
X100000000Y-83000000D03*
%TO.N,VCC*%
X129000000Y-83000000D03*
%TD*%
D13*
%TO.N,VCC*%
X129000000Y-83000000D02*
X119510000Y-83000000D01*
%TO.N,/led*%
X115485000Y-83000000D02*
X118490000Y-83000000D01*
%TD*%
%TA.AperFunction,Conductor*%
%TO.N,GND*%
G36*
X134003736Y-70500726D02*
G01*
X134293796Y-70518271D01*
X134308659Y-70520076D01*
X134590798Y-70571780D01*
X134605335Y-70575363D01*
X134879172Y-70660695D01*
X134893163Y-70666000D01*
X135154743Y-70783727D01*
X135167989Y-70790680D01*
X135413465Y-70939075D01*
X135425776Y-70947573D01*
X135651573Y-71124473D01*
X135662781Y-71134403D01*
X135865596Y-71337218D01*
X135875526Y-71348426D01*
X135995481Y-71501538D01*
X136052422Y-71574217D01*
X136060928Y-71586540D01*
X136209316Y-71832004D01*
X136216275Y-71845263D01*
X136333997Y-72106831D01*
X136339306Y-72120832D01*
X136424635Y-72394663D01*
X136428219Y-72409201D01*
X136479923Y-72691340D01*
X136481728Y-72706205D01*
X136499274Y-72996263D01*
X136499500Y-73003750D01*
X136499500Y-92996249D01*
X136499274Y-93003736D01*
X136481728Y-93293794D01*
X136479923Y-93308659D01*
X136428219Y-93590798D01*
X136424635Y-93605336D01*
X136339306Y-93879167D01*
X136333997Y-93893168D01*
X136216275Y-94154736D01*
X136209316Y-94167995D01*
X136060928Y-94413459D01*
X136052422Y-94425782D01*
X135875526Y-94651573D01*
X135865596Y-94662781D01*
X135662781Y-94865596D01*
X135651573Y-94875526D01*
X135425782Y-95052422D01*
X135413459Y-95060928D01*
X135167995Y-95209316D01*
X135154736Y-95216275D01*
X134893168Y-95333997D01*
X134879167Y-95339306D01*
X134605336Y-95424635D01*
X134590798Y-95428219D01*
X134308659Y-95479923D01*
X134293794Y-95481728D01*
X134003736Y-95499274D01*
X133996249Y-95499500D01*
X100003751Y-95499500D01*
X99996264Y-95499274D01*
X99706205Y-95481728D01*
X99691340Y-95479923D01*
X99409201Y-95428219D01*
X99394663Y-95424635D01*
X99120832Y-95339306D01*
X99106831Y-95333997D01*
X98845263Y-95216275D01*
X98832004Y-95209316D01*
X98586540Y-95060928D01*
X98574217Y-95052422D01*
X98348426Y-94875526D01*
X98337218Y-94865596D01*
X98134403Y-94662781D01*
X98124473Y-94651573D01*
X97947573Y-94425776D01*
X97939075Y-94413465D01*
X97790680Y-94167989D01*
X97783727Y-94154743D01*
X97666000Y-93893163D01*
X97660693Y-93879167D01*
X97575364Y-93605336D01*
X97571780Y-93590798D01*
X97520076Y-93308659D01*
X97518271Y-93293794D01*
X97500726Y-93003736D01*
X97500500Y-92996249D01*
X97500500Y-83250000D01*
X113720954Y-83250000D01*
X113722889Y-83274597D01*
X113768529Y-83431692D01*
X113768531Y-83431697D01*
X113851806Y-83572508D01*
X113851812Y-83572516D01*
X113967483Y-83688187D01*
X113967491Y-83688193D01*
X114108302Y-83771468D01*
X114265000Y-83816992D01*
X114265000Y-83250000D01*
X113720954Y-83250000D01*
X97500500Y-83250000D01*
X97500500Y-82762052D01*
X114689500Y-82762052D01*
X114689500Y-83237947D01*
X114692390Y-83274673D01*
X114692391Y-83274679D01*
X114738066Y-83431892D01*
X114738068Y-83431895D01*
X114747732Y-83448236D01*
X114765000Y-83511357D01*
X114765000Y-83816991D01*
X114921696Y-83771468D01*
X114936386Y-83762781D01*
X115004110Y-83745597D01*
X115062628Y-83762779D01*
X115078103Y-83771931D01*
X115078104Y-83771931D01*
X115078107Y-83771933D01*
X115235320Y-83817608D01*
X115235323Y-83817608D01*
X115235325Y-83817609D01*
X115272060Y-83820500D01*
X115272068Y-83820500D01*
X115697932Y-83820500D01*
X115697940Y-83820500D01*
X115734675Y-83817609D01*
X115734677Y-83817608D01*
X115734679Y-83817608D01*
X115891892Y-83771933D01*
X115891893Y-83771932D01*
X115891897Y-83771931D01*
X116032820Y-83688590D01*
X116084590Y-83636820D01*
X116145913Y-83603334D01*
X116172272Y-83600500D01*
X117820405Y-83600500D01*
X117887444Y-83620185D01*
X117908081Y-83636814D01*
X117962402Y-83691135D01*
X118100607Y-83772869D01*
X118100614Y-83772871D01*
X118254791Y-83817664D01*
X118254794Y-83817664D01*
X118254796Y-83817665D01*
X118290819Y-83820500D01*
X118689180Y-83820499D01*
X118725204Y-83817665D01*
X118879393Y-83772869D01*
X118936882Y-83738869D01*
X119004602Y-83721688D01*
X119063117Y-83738869D01*
X119120607Y-83772869D01*
X119120610Y-83772869D01*
X119120612Y-83772871D01*
X119274791Y-83817664D01*
X119274794Y-83817664D01*
X119274796Y-83817665D01*
X119310819Y-83820500D01*
X119709180Y-83820499D01*
X119745204Y-83817665D01*
X119899393Y-83772869D01*
X120037598Y-83691135D01*
X120091915Y-83636817D01*
X120153236Y-83603334D01*
X120179595Y-83600500D01*
X128417588Y-83600500D01*
X128484627Y-83620185D01*
X128494903Y-83627555D01*
X128497736Y-83629814D01*
X128497738Y-83629816D01*
X128650478Y-83725789D01*
X128756195Y-83762781D01*
X128820745Y-83785368D01*
X128820750Y-83785369D01*
X128999996Y-83805565D01*
X129000000Y-83805565D01*
X129000004Y-83805565D01*
X129179249Y-83785369D01*
X129179252Y-83785368D01*
X129179255Y-83785368D01*
X129349522Y-83725789D01*
X129502262Y-83629816D01*
X129629816Y-83502262D01*
X129725789Y-83349522D01*
X129785368Y-83179255D01*
X129805565Y-83000000D01*
X129785368Y-82820745D01*
X129725789Y-82650478D01*
X129629816Y-82497738D01*
X129502262Y-82370184D01*
X129409364Y-82311812D01*
X129349523Y-82274211D01*
X129179254Y-82214631D01*
X129179249Y-82214630D01*
X129000004Y-82194435D01*
X128999996Y-82194435D01*
X128820750Y-82214630D01*
X128820745Y-82214631D01*
X128650476Y-82274211D01*
X128497736Y-82370185D01*
X128494903Y-82372445D01*
X128492724Y-82373334D01*
X128491842Y-82373889D01*
X128491744Y-82373734D01*
X128430217Y-82398855D01*
X128417588Y-82399500D01*
X120179595Y-82399500D01*
X120112556Y-82379815D01*
X120091918Y-82363185D01*
X120037598Y-82308865D01*
X119985930Y-82278309D01*
X119899393Y-82227131D01*
X119899388Y-82227129D01*
X119745208Y-82182335D01*
X119745202Y-82182334D01*
X119709181Y-82179500D01*
X119310830Y-82179500D01*
X119310808Y-82179501D01*
X119274794Y-82182335D01*
X119120611Y-82227129D01*
X119120604Y-82227132D01*
X119063119Y-82261128D01*
X118995395Y-82278309D01*
X118936881Y-82261128D01*
X118879395Y-82227132D01*
X118879388Y-82227129D01*
X118725208Y-82182335D01*
X118725202Y-82182334D01*
X118689181Y-82179500D01*
X118290830Y-82179500D01*
X118290808Y-82179501D01*
X118254794Y-82182335D01*
X118100611Y-82227129D01*
X118100606Y-82227131D01*
X117962404Y-82308863D01*
X117962400Y-82308866D01*
X117935243Y-82336023D01*
X117908084Y-82363182D01*
X117846764Y-82396666D01*
X117820405Y-82399500D01*
X116172272Y-82399500D01*
X116105233Y-82379815D01*
X116084590Y-82363180D01*
X116032825Y-82311414D01*
X116032817Y-82311408D01*
X115907372Y-82237221D01*
X115891897Y-82228069D01*
X115891896Y-82228068D01*
X115891895Y-82228068D01*
X115891892Y-82228066D01*
X115734679Y-82182391D01*
X115734673Y-82182390D01*
X115697947Y-82179500D01*
X115697940Y-82179500D01*
X115272060Y-82179500D01*
X115272052Y-82179500D01*
X115235326Y-82182390D01*
X115235320Y-82182391D01*
X115078103Y-82228068D01*
X115078102Y-82228068D01*
X115062625Y-82237221D01*
X114994900Y-82254400D01*
X114936392Y-82237220D01*
X114921704Y-82228534D01*
X114921691Y-82228529D01*
X114765001Y-82183005D01*
X114765000Y-82183006D01*
X114765000Y-82488641D01*
X114747734Y-82551759D01*
X114738067Y-82568104D01*
X114692391Y-82725320D01*
X114692390Y-82725326D01*
X114689500Y-82762052D01*
X97500500Y-82762052D01*
X97500500Y-82750000D01*
X113720953Y-82750000D01*
X114265000Y-82750000D01*
X114265000Y-82183006D01*
X114264998Y-82183005D01*
X114108307Y-82228528D01*
X114108304Y-82228530D01*
X113967491Y-82311806D01*
X113967483Y-82311812D01*
X113851812Y-82427483D01*
X113851806Y-82427491D01*
X113768531Y-82568302D01*
X113768529Y-82568307D01*
X113722890Y-82725396D01*
X113722888Y-82725408D01*
X113720953Y-82750000D01*
X97500500Y-82750000D01*
X97500500Y-73003750D01*
X97500726Y-72996263D01*
X97518271Y-72706205D01*
X97520076Y-72691340D01*
X97571780Y-72409201D01*
X97575364Y-72394663D01*
X97652096Y-72148422D01*
X97660696Y-72120822D01*
X97665998Y-72106841D01*
X97783731Y-71845249D01*
X97790676Y-71832016D01*
X97939080Y-71586526D01*
X97947567Y-71574230D01*
X98124480Y-71348417D01*
X98134395Y-71337226D01*
X98337226Y-71134395D01*
X98348417Y-71124480D01*
X98574230Y-70947567D01*
X98586526Y-70939080D01*
X98832016Y-70790676D01*
X98845249Y-70783731D01*
X99106841Y-70665998D01*
X99120822Y-70660696D01*
X99394668Y-70575362D01*
X99409197Y-70571780D01*
X99691344Y-70520075D01*
X99706201Y-70518271D01*
X99996264Y-70500726D01*
X100003751Y-70500500D01*
X100065892Y-70500500D01*
X133934108Y-70500500D01*
X133996249Y-70500500D01*
X134003736Y-70500726D01*
G37*
%TD.AperFunction*%
%TD*%
M02*
