%TF.GenerationSoftware,KiCad,Pcbnew,8.0.6*%
%TF.CreationDate,2024-11-14T10:44:01+01:00*%
%TF.ProjectId,dac_hat,6461635f-6861-4742-9e6b-696361645f70,0*%
%TF.SameCoordinates,Original*%
%TF.FileFunction,Legend,Top*%
%TF.FilePolarity,Positive*%
%FSLAX46Y46*%
G04 Gerber Fmt 4.6, Leading zero omitted, Abs format (unit mm)*
G04 Created by KiCad (PCBNEW 8.0.6) date 2024-11-14 10:44:01*
%MOMM*%
%LPD*%
G01*
G04 APERTURE LIST*
%ADD10C,0.150000*%
%ADD11C,0.120000*%
%ADD12C,0.100000*%
G04 APERTURE END LIST*
D10*
X118833333Y-82284819D02*
X118500000Y-81808628D01*
X118261905Y-82284819D02*
X118261905Y-81284819D01*
X118261905Y-81284819D02*
X118642857Y-81284819D01*
X118642857Y-81284819D02*
X118738095Y-81332438D01*
X118738095Y-81332438D02*
X118785714Y-81380057D01*
X118785714Y-81380057D02*
X118833333Y-81475295D01*
X118833333Y-81475295D02*
X118833333Y-81618152D01*
X118833333Y-81618152D02*
X118785714Y-81713390D01*
X118785714Y-81713390D02*
X118738095Y-81761009D01*
X118738095Y-81761009D02*
X118642857Y-81808628D01*
X118642857Y-81808628D02*
X118261905Y-81808628D01*
X119785714Y-82284819D02*
X119214286Y-82284819D01*
X119500000Y-82284819D02*
X119500000Y-81284819D01*
X119500000Y-81284819D02*
X119404762Y-81427676D01*
X119404762Y-81427676D02*
X119309524Y-81522914D01*
X119309524Y-81522914D02*
X119214286Y-81570533D01*
X114261905Y-82284819D02*
X114261905Y-81284819D01*
X114261905Y-81284819D02*
X114500000Y-81284819D01*
X114500000Y-81284819D02*
X114642857Y-81332438D01*
X114642857Y-81332438D02*
X114738095Y-81427676D01*
X114738095Y-81427676D02*
X114785714Y-81522914D01*
X114785714Y-81522914D02*
X114833333Y-81713390D01*
X114833333Y-81713390D02*
X114833333Y-81856247D01*
X114833333Y-81856247D02*
X114785714Y-82046723D01*
X114785714Y-82046723D02*
X114738095Y-82141961D01*
X114738095Y-82141961D02*
X114642857Y-82237200D01*
X114642857Y-82237200D02*
X114500000Y-82284819D01*
X114500000Y-82284819D02*
X114261905Y-82284819D01*
X115785714Y-82284819D02*
X115214286Y-82284819D01*
X115500000Y-82284819D02*
X115500000Y-81284819D01*
X115500000Y-81284819D02*
X115404762Y-81427676D01*
X115404762Y-81427676D02*
X115309524Y-81522914D01*
X115309524Y-81522914D02*
X115214286Y-81570533D01*
D11*
%TO.C,R1*%
X118846359Y-82620000D02*
X119153641Y-82620000D01*
X118846359Y-83380000D02*
X119153641Y-83380000D01*
D12*
%TO.C,D1*%
X113960000Y-83000000D02*
G75*
G02*
X113860000Y-83000000I-50000J0D01*
G01*
X113860000Y-83000000D02*
G75*
G02*
X113960000Y-83000000I50000J0D01*
G01*
%TD*%
M02*
